<?xml version="1.0" encoding="iso-8859-1"?>
<!-- Generator: Adobe Illustrator 19.0.0, SVG Export Plug-In . SVG Version: 6.00 Build 0)  -->
<svg version="1.1" id="Layer_1" xmlns="http://www.w3.org/2000/svg" xmlns:xlink="http://www.w3.org/1999/xlink" x="0px" y="0px"
	 viewBox="0 0 512 512" style="enable-background:new 0 0 512 512;" xml:space="preserve">
<g>
	<g>
		<g>
			<path d="M368.544,176.13c2.92-2.92,2.92-7.656-0.002-10.575c-2.92-2.924-7.656-2.924-10.575-0.003
				c-2.922,2.921-2.922,7.656,0.001,10.579C360.888,179.049,365.624,179.049,368.544,176.13z"/>
			<circle cx="318.934" cy="126.518" r="7.479"/>
			<circle cx="370.045" cy="141.928" r="7.481"/>
			<circle cx="325.726" cy="97.607" r="7.479"/>
			<circle cx="341.093" cy="148.679" r="7.479"/>
			<circle cx="347.883" cy="119.767" r="7.478"/>
			<circle cx="392.206" cy="164.088" r="7.479"/>
			<circle cx="436.526" cy="208.409" r="7.478"/>
			<path d="M223.089,242.408l-45.017,45.015c-12.814,12.816-12.814,33.666,0,46.479c6.206,6.209,14.461,9.628,23.24,9.628
				c8.779,0,17.032-3.418,23.24-9.626l45.014-45.016c6.209-6.208,9.629-14.462,9.628-23.241c0-8.778-3.419-17.032-9.627-23.241
				c-6.208-6.206-14.46-9.626-23.239-9.626C237.549,232.78,229.295,236.2,223.089,242.408z M212.998,322.35
				c-3.122,3.122-7.273,4.841-11.686,4.841c-4.415,0-8.565-1.72-11.688-4.842c-6.444-6.444-6.443-16.929,0-23.374l32.126-32.125
				c0.294,6.126,2.791,11.849,7.157,16.216s10.09,6.862,16.217,7.156L212.998,322.35z M252.193,259.781
				c1.567,1.566,2.43,3.65,2.43,5.867s-0.864,4.3-2.43,5.867s-3.65,2.428-5.866,2.428c-2.217,0-4.3-0.863-5.868-2.43
				c-1.566-1.566-2.429-3.65-2.429-5.866s0.863-4.297,2.429-5.863c1.569-1.569,3.653-2.431,5.87-2.431
				C248.545,257.352,250.626,258.215,252.193,259.781z"/>
			<path d="M291.486,99.071c-2.921,2.921-2.925,7.654-0.002,10.574c2.922,2.924,7.655,2.921,10.577,0
				c2.921-2.92,2.922-7.653-0.001-10.574C299.14,96.149,294.406,96.151,291.486,99.071z"/>
			<circle cx="407.574" cy="215.159" r="7.479"/>
			<circle cx="414.366" cy="186.249" r="7.478"/>
			<circle cx="385.414" cy="193.001" r="7.479"/>
			<circle cx="435.898" cy="98.197" r="7.479"/>
			<circle cx="451.308" cy="149.309" r="7.478"/>
			<circle cx="413.735" cy="76.036" r="7.478"/>
			<circle cx="458.057" cy="120.357" r="7.478"/>
			<circle cx="429.147" cy="127.148" r="7.477"/>
			<circle cx="480.219" cy="142.517" r="7.48"/>
			<path d="M475.833,36.141c-48.148-48.149-126.489-48.147-174.637,0c-19.57,19.57-31.93,45.045-35.254,72.356
				c-0.042,0.041-0.089,0.076-0.132,0.119l-19.459,19.459c-3.19,3.19-3.19,8.363,0,11.552l0.331,0.331L73.264,346.207l-6.391,6.391
				l0.553,0.553l-41.794,49.706c-2.729,3.245-2.522,8.036,0.477,11.034l3.767,3.767l-14.266,14.265
				c-1.533,1.531-2.393,3.61-2.393,5.776s0.861,4.244,2.392,5.776l9.53,9.531L2.392,475.75C0.86,477.282,0,479.359,0,481.527
				c0,2.167,0.86,4.245,2.392,5.776l22.274,22.274c1.533,1.533,3.61,2.393,5.777,2.393c2.167,0,4.244-0.86,5.777-2.393
				l22.745-22.745l9.529,9.53c1.533,1.533,3.611,2.393,5.777,2.393c2.167,0,4.244-0.861,5.777-2.393l14.266-14.267l3.772,3.771
				c1.588,1.588,3.679,2.393,5.778,2.393c1.862,0,3.73-0.634,5.256-1.917l49.705-41.793l0.55,0.55l6.363-6.363l206.276-173.441
				l0.329,0.329c1.596,1.596,3.686,2.393,5.777,2.393c2.09,0,4.182-0.797,5.776-2.393l19.46-19.46
				c0.042-0.042,0.08-0.09,0.121-0.133c27.312-3.322,52.777-15.677,72.353-35.253c23.324-23.323,36.169-54.332,36.168-87.317
				C512,90.474,499.156,59.463,475.833,36.141z M30.443,492.247l-10.721-10.72l16.97-16.969l10.719,10.72L30.443,492.247z
				 M74.272,479.031l-41.333-41.333l8.49-8.49L82.76,470.54L74.272,479.031z M104.339,469.013l-61.38-61.378l36.061-42.889
				l68.206,68.206L104.339,469.013z M159.782,422.397l-70.204-70.204l168.7-200.638l102.141,102.142L159.782,422.397z
				 M378.122,248.294L263.68,133.851l7.907-7.907l114.442,114.442L378.122,248.294z M398.837,230.087l-116.953-116.95
				c2.123-22.012,11.001-42.766,25.38-59.492l151.064,151.063C441.599,219.09,420.851,227.966,398.837,230.087z M469.893,193.165
				L318.831,42.105c28.659-24.578,67.303-31.542,101.627-20.881c0.362,0.81,0.868,1.572,1.533,2.237
				c2.305,2.304,5.737,2.782,8.518,1.45c5.54,2.353,10.92,5.184,16.075,8.51c-0.885,0.365-1.714,0.905-2.433,1.624
				c-2.919,2.92-2.919,7.656,0,10.575c2.922,2.92,7.657,2.92,10.578,0c1.295-1.295,2.013-2.949,2.158-4.641
				c2.539,2.108,5.014,4.334,7.393,6.713c2.361,2.36,4.593,4.815,6.703,7.351c-1.702,0.139-3.368,0.857-4.671,2.16
				c-2.921,2.922-2.921,7.657,0.001,10.578c2.921,2.921,7.656,2.921,10.578,0.001c0.733-0.733,1.281-1.582,1.646-2.487
				c3.311,5.101,6.164,10.455,8.542,16.011c-1.402,2.8-0.941,6.298,1.394,8.635c0.703,0.703,1.512,1.232,2.372,1.596
				c3.169,10.202,4.818,20.933,4.818,31.92C495.662,149.31,486.566,173.763,469.893,193.165z"/>
			<circle cx="487.009" cy="113.604" r="7.478"/>
			<circle cx="473.467" cy="171.468" r="7.478"/>
			<circle cx="406.986" cy="104.986" r="7.479"/>
			<path d="M298.277,70.16c-2.922,2.92-2.921,7.653,0.001,10.575c2.919,2.921,7.653,2.921,10.572,0
				c2.921-2.92,2.924-7.655,0.003-10.575C305.931,67.239,301.196,67.241,298.277,70.16z"/>
			<circle cx="442.688" cy="69.286" r="7.48"/>
			<circle cx="420.528" cy="47.124" r="7.478"/>
			<circle cx="464.848" cy="91.446" r="7.479"/>
			<circle cx="398.367" cy="24.965" r="7.478"/>
			<circle cx="369.418" cy="31.715" r="7.479"/>
			<circle cx="391.577" cy="53.876" r="7.479"/>
			<path d="M379.538,77.539c-2.92,2.92-2.92,7.657,0,10.575c2.92,2.922,7.654,2.922,10.576,0c2.92-2.921,2.92-7.655-0.002-10.575
				C387.195,74.619,382.458,74.618,379.538,77.539z"/>
			<circle cx="340.504" cy="38.506" r="7.478"/>
			<path d="M357.377,55.378c-2.922,2.921-2.919,7.656,0.002,10.578c2.92,2.921,7.653,2.92,10.574-0.002
				c2.922-2.92,2.922-7.653,0-10.573C365.032,52.458,360.298,52.457,357.377,55.378z"/>
		</g>
	</g>
</g>
<g>
</g>
<g>
</g>
<g>
</g>
<g>
</g>
<g>
</g>
<g>
</g>
<g>
</g>
<g>
</g>
<g>
</g>
<g>
</g>
<g>
</g>
<g>
</g>
<g>
</g>
<g>
</g>
<g>
</g>
</svg>
