<svg width="22" height="24" viewBox="0 0 22 24" fill="none" xmlns="http://www.w3.org/2000/svg">
<path d="M15.5063 0.333328C19.235 0.333328 21.4645 2.57333 21.4995 6.32066V17.5895C21.4995 21.3893 19.2642 23.6667 15.5063 23.6667H6.49384C6.01318 23.6667 5.55701 23.6293 5.12768 23.5558L4.87334 23.508C2.10718 22.9328 0.499512 20.8142 0.499512 17.5895V6.4105C0.499512 6.02083 0.522845 5.6475 0.569512 5.2905C0.976678 2.158 3.12918 0.333328 6.49384 0.333328H15.5063ZM15.4958 2.03316H6.49384C3.62851 2.03316 2.17601 3.50666 2.17601 6.4105V17.5895C2.17601 20.4933 3.62851 21.9668 6.49384 21.9668H15.4958C18.36 21.9668 19.8032 20.4933 19.8032 17.5895V6.4105C19.8032 3.50666 18.36 2.03316 15.4958 2.03316ZM15.1913 16.095C15.651 16.095 16.0232 16.473 16.0232 16.9397C16.0232 17.4063 15.651 17.7843 15.1913 17.7843H6.77851C6.31884 17.7843 5.94551 17.4063 5.94551 16.9397C5.94551 16.473 6.31884 16.095 6.77851 16.095H15.1913ZM15.1913 11.1495C15.5122 11.1145 15.826 11.2685 15.9975 11.545C16.169 11.8238 16.169 12.1762 15.9975 12.455C15.826 12.7315 15.5122 12.8855 15.1913 12.8505H6.77851C6.35151 12.8015 6.02834 12.4363 6.02834 12C6.02834 11.5637 6.35151 11.1973 6.77851 11.1495H15.1913ZM9.98918 6.21566C10.4162 6.26349 10.7393 6.62983 10.7393 7.06616C10.7393 7.50133 10.4162 7.86766 9.98918 7.9155H6.78901C6.36084 7.86766 6.03768 7.50133 6.03768 7.06616C6.03768 6.62983 6.36084 6.26349 6.78901 6.21566H9.98918Z" fill="#5C616F"/>
</svg>
