<svg width="20" height="20" viewBox="0 0 20 20" fill="none" xmlns="http://www.w3.org/2000/svg">
<path d="M9.99927 1.25C8.17657 1.25216 6.42914 1.97719 5.1403 3.26603C3.85145 4.55487 3.12643 6.3023 3.12427 8.125C3.12427 14.0076 9.37427 18.4509 9.64038 18.6371C9.74562 18.7106 9.8709 18.75 9.99927 18.75C10.1276 18.75 10.2529 18.7106 10.3582 18.6371C10.6243 18.4509 16.8743 14.0076 16.8743 8.125C16.8721 6.3023 16.1471 4.55487 14.8582 3.26603C13.5694 1.97719 11.822 1.25216 9.99927 1.25ZM9.99973 5.62523C10.4942 5.62523 10.9775 5.77185 11.3887 6.04655C11.7998 6.32126 12.1202 6.7117 12.3094 7.16852C12.4986 7.62533 12.5482 8.128 12.4517 8.61295C12.3552 9.0979 12.1171 9.54336 11.7675 9.89299C11.4179 10.2426 10.9724 10.4807 10.4875 10.5772C10.0025 10.6737 9.49983 10.6241 9.04302 10.4349C8.5862 10.2457 8.19576 9.92527 7.92105 9.51415C7.64635 9.10303 7.49973 8.61968 7.49973 8.12523C7.49972 7.79692 7.56437 7.47183 7.69001 7.16851C7.81564 6.86519 7.99979 6.58959 8.23194 6.35744C8.46409 6.12529 8.73969 5.94114 9.04301 5.81551C9.34632 5.68988 9.67142 5.62522 9.99973 5.62523Z" fill="#363D4E"/>
</svg>
