<svg width="20" height="24" viewBox="0 0 20 24" fill="none" xmlns="http://www.w3.org/2000/svg">
<path d="M13.0426 20.9725C13.3886 21.2543 13.4435 21.7667 13.1651 22.117C12.9593 22.3759 12.7215 22.6077 12.4695 22.7977C11.6206 23.4638 10.5414 23.7658 9.46953 23.6382C8.39675 23.5104 7.41818 22.9624 6.75036 22.1139C6.47364 21.7623 6.53088 21.2502 6.87822 20.9701C7.22555 20.69 7.73145 20.748 8.00817 21.0995C8.41092 21.6113 9.00449 21.9436 9.65747 22.0214C10.3114 22.0993 10.9692 21.9152 11.4963 21.5018C11.6518 21.3845 11.7914 21.2483 11.9121 21.0965C12.1905 20.7463 12.6966 20.6908 13.0426 20.9725ZM2.01082 8.49986L2.02519 7.80472C2.03545 7.50739 2.05135 7.23139 2.07467 6.96128C2.42431 3.18549 6.02827 0.333496 9.95893 0.333496H10.0421C13.9707 0.333496 17.5757 3.18349 17.9373 6.96642C17.958 7.20689 17.9669 7.4205 17.9696 7.7209L17.9707 8.63996C17.9715 8.72367 17.973 8.7973 17.9751 8.86594L17.9859 9.09489L18.0379 9.31319C18.202 9.92119 18.4905 10.4896 18.8856 10.9831L19.0614 11.1899L19.1334 11.2823C19.6073 11.9905 19.878 12.8145 19.9167 13.702L19.9155 14.1725C19.8825 15.2236 19.4966 16.2388 18.7895 17.0847C17.853 18.0786 16.5839 18.696 15.2352 18.8202C11.7523 19.1984 8.23834 19.1984 4.76513 18.8212C3.40713 18.6905 2.14186 18.0749 1.16441 17.0429C0.443632 16.1641 0.0604942 15.0577 0.0843981 13.9397L0.0853848 13.6617C0.127027 12.8116 0.396053 11.9883 0.864267 11.2771L0.942634 11.1762C1.48946 10.5767 1.86332 9.84305 2.02553 9.05206L2.00798 9.12311L2.01082 8.49986ZM10.0421 1.9614H9.95893C6.81094 1.9614 3.94272 4.23117 3.6763 7.10807C3.66266 7.26616 3.65178 7.42925 3.64328 7.60089L3.62455 8.14502L3.61694 9.2175L3.60015 9.38295C3.37852 10.4637 2.86851 11.4646 2.12419 12.2806L2.18166 12.214L2.07886 12.3841C1.88629 12.7311 1.76206 13.1079 1.71297 13.4798L1.69259 13.702L1.6924 13.9571C1.67664 14.7001 1.92769 15.4251 2.36265 15.9587C3.03363 16.665 3.94131 17.1067 4.92697 17.2016C8.29584 17.5674 11.6948 17.5674 15.0766 17.2003C16.0516 17.1104 16.9586 16.6691 17.5931 15.9979C18.0733 15.422 18.3271 14.6948 18.3085 13.9293L18.3094 13.7387C18.2848 13.1885 18.1096 12.655 17.8019 12.1952L17.8197 12.2248L17.6589 12.0362C17.1042 11.3516 16.7013 10.5576 16.477 9.70646L16.4013 9.38471L16.3863 9.27659C16.3749 9.11865 16.3683 8.97828 16.3648 8.80949L16.3616 7.75408C16.3594 7.48568 16.3522 7.30501 16.3359 7.11564C16.0601 4.23104 13.1892 1.9614 10.0421 1.9614Z" fill="#5C616F"/>
</svg>
