<svg width="24" height="24" viewBox="0 0 24 24" fill="none" xmlns="http://www.w3.org/2000/svg">
<path d="M9.35205 1.25282C10.8337 0.0756492 12.9104 0.0289825 14.4376 1.11282L14.6254 1.25282L21.7292 6.93565C22.5109 7.54115 22.9904 8.44065 23.0721 9.41948L23.0837 9.65398V19.1145C23.0837 21.5528 21.1576 23.5362 18.7437 23.6645H16.4221C15.3126 23.6423 14.4154 22.779 14.3337 21.694L14.3221 21.5295V18.194C14.3221 17.8312 14.0526 17.529 13.6921 17.4695L13.5871 17.4578H10.4709C10.0987 17.4695 9.79539 17.7378 9.74872 18.0878L9.73705 18.194V21.519C9.73705 21.5878 9.72422 21.6695 9.71372 21.7278L9.70205 21.7523L9.68922 21.8328C9.55039 22.8257 8.73372 23.5828 7.71872 23.654L7.56705 23.6645H5.47872C3.04039 23.6645 1.04539 21.7523 0.917053 19.3478V9.65398C0.927553 8.66115 1.36039 7.73948 2.08372 7.09782L9.35205 1.25282ZM13.6104 2.52448C12.7237 1.81282 11.4637 1.77898 10.5304 2.39615L10.3542 2.52448L3.26089 8.24232C2.85372 8.54448 2.60872 8.99948 2.55039 9.47782L2.53755 9.66448V19.1145C2.53755 20.6662 3.75089 21.9378 5.29205 22.0312H7.56705C7.82372 22.0312 8.04539 21.8573 8.07922 21.6123L8.10372 21.4023L8.11539 21.3428V18.194C8.11539 16.9457 9.07205 15.9306 10.2971 15.8361H13.5871C14.8342 15.8361 15.8492 16.794 15.9437 18.019V21.5295C15.9437 21.7745 16.1187 21.9857 16.3521 22.0312H18.5209C20.0842 22.0312 21.3559 20.8307 21.4492 19.3012L21.4621 19.1145V9.66448C21.4492 9.16398 21.2404 8.69615 20.8787 8.34732L20.7271 8.21782L13.6104 2.52448Z" fill="#5C616F"/>
</svg>
