<svg width="29" height="29" viewBox="0 0 29 29" fill="none" xmlns="http://www.w3.org/2000/svg">
<path d="M14.9922 16.2407C16.9252 16.2407 18.4922 14.6737 18.4922 12.7407C18.4922 10.8077 16.9252 9.24072 14.9922 9.24072C13.0592 9.24072 11.4922 10.8077 11.4922 12.7407C11.4922 14.6737 13.0592 16.2407 14.9922 16.2407Z" stroke="#77798C" stroke-width="2" stroke-linecap="round" stroke-linejoin="round"/>
<path d="M3.61719 12.3032H6.24219" stroke="#77798C" stroke-width="2" stroke-linecap="round" stroke-linejoin="round"/>
<path d="M3.61719 7.92822H6.24219" stroke="#77798C" stroke-width="2" stroke-linecap="round" stroke-linejoin="round"/>
<path d="M3.61719 16.6782H6.24219" stroke="#77798C" stroke-width="2" stroke-linecap="round" stroke-linejoin="round"/>
<path d="M3.61719 21.0532H6.24219" stroke="#77798C" stroke-width="2" stroke-linecap="round" stroke-linejoin="round"/>
<path d="M9.74219 18.8657C10.3535 18.0507 11.1461 17.3892 12.0573 16.9335C12.9686 16.4779 13.9734 16.2407 14.9922 16.2407C16.011 16.2407 17.0158 16.4779 17.927 16.9335C18.8383 17.3892 19.6309 18.0507 20.2422 18.8657" stroke="#77798C" stroke-width="2" stroke-linecap="round" stroke-linejoin="round"/>
<path d="M23.7422 24.1157V4.86572C23.7422 4.38247 23.3504 3.99072 22.8672 3.99072L7.11719 3.99072C6.63394 3.99072 6.24219 4.38247 6.24219 4.86572V24.1157C6.24219 24.599 6.63394 24.9907 7.11719 24.9907H22.8672C23.3504 24.9907 23.7422 24.599 23.7422 24.1157Z" stroke="#77798C" stroke-width="2" stroke-linecap="round" stroke-linejoin="round"/>
</svg>
