<svg width="14" height="15" viewBox="0 0 14 15" fill="none" xmlns="http://www.w3.org/2000/svg">
<g clip-path="url(#clip0_130_210)">
<path d="M13.3683 4.41295L9.0011 1.84988C8.92503 1.80525 8.83279 1.80525 8.75671 1.84988L7.11446 2.81371C7.07736 2.82473 7.04275 2.84498 7.01339 2.87297L4.38953 4.41295C4.3083 4.46065 4.25781 4.55182 4.25781 4.65083V5.20568H1.32837C1.18813 5.20568 1.07446 5.32727 1.07446 5.47706C1.07446 5.62696 1.18813 5.74844 1.32837 5.74844H4.25781V6.72542H2.80212C2.66187 6.72542 2.54821 6.84701 2.54821 6.9968C2.54821 7.1467 2.66187 7.26818 2.80212 7.26818H4.25781V8.67936H2.125C1.98476 8.67936 1.87109 8.80096 1.87109 8.95075C1.87109 9.10064 1.98476 9.22213 2.125 9.22213H4.25781V9.77708C4.25781 9.87609 4.3083 9.96726 4.38953 10.015L8.75671 12.578C8.7948 12.6004 8.83685 12.6115 8.87891 12.6115C8.92096 12.6115 8.96301 12.6004 9.0011 12.578L13.3683 10.015C13.4495 9.96726 13.5 9.87609 13.5 9.77708V8.5618C13.5 8.41201 13.3863 8.29042 13.2461 8.29042C13.1059 8.29042 12.9922 8.41201 12.9922 8.5618V9.61648L9.13281 11.8816V7.37451L10.3602 6.65418V7.79737C10.3602 7.89342 10.4076 7.98225 10.4849 8.03102C10.5246 8.05614 10.5694 8.06876 10.6141 8.06876C10.6562 8.06876 10.6983 8.05763 10.7365 8.03515L11.6724 7.48465C11.7534 7.43695 11.8038 7.34588 11.8038 7.24687V5.80696L12.9922 5.10953V6.39075C12.9922 6.54064 13.1059 6.66213 13.2461 6.66213C13.3863 6.66213 13.5 6.54064 13.5 6.39075V4.65083C13.5 4.55182 13.4495 4.46065 13.3683 4.41295ZM8.87891 6.90436L5.03927 4.65083L6.24602 3.94259L10.0858 6.19612L8.87891 6.90436ZM11.557 5.33257L7.71738 3.07905L8.87891 2.39741L12.7185 4.65083L11.557 5.33257Z" fill="white"/>
<path d="M13.2461 7.20508C13.1793 7.20508 13.1138 7.23381 13.0666 7.28458C13.0194 7.33504 12.9922 7.4048 12.9922 7.47646C12.9922 7.5478 13.0194 7.61787 13.0666 7.66833C13.1138 7.71879 13.1793 7.74784 13.2461 7.74784C13.3128 7.74784 13.3784 7.71879 13.4256 7.66833C13.4728 7.61787 13.5 7.5478 13.5 7.47646C13.5 7.4048 13.4728 7.33504 13.4256 7.28458C13.3784 7.23381 13.3128 7.20508 13.2461 7.20508Z" fill="white"/>
<path d="M1.11781 8.67944H0.753906C0.613663 8.67944 0.5 8.80103 0.5 8.95082C0.5 9.10072 0.613663 9.22221 0.753906 9.22221H1.11781C1.25805 9.22221 1.37171 9.10072 1.37171 8.95082C1.37171 8.80103 1.25805 8.67944 1.11781 8.67944Z" fill="white"/>
<path d="M2.04053 6.99672C2.04053 6.92538 2.01335 6.85541 1.96604 6.80495C1.91883 6.75439 1.85337 6.72534 1.78662 6.72534C1.71977 6.72534 1.65431 6.75439 1.6071 6.80495C1.55959 6.85541 1.53271 6.92538 1.53271 6.99672C1.53271 7.06817 1.55959 7.13814 1.6071 7.1886C1.65431 7.23906 1.71977 7.26811 1.78662 7.26811C1.85337 7.26811 1.91883 7.23916 1.96604 7.1886C2.01335 7.13814 2.04053 7.06817 2.04053 6.99672Z" fill="white"/>
</g>
<defs>
<clipPath id="clip0_130_210">
<rect width="13" height="13.8947" fill="white" transform="translate(0.5 0.269531)"/>
</clipPath>
</defs>
</svg>
