<svg width="28" height="29" viewBox="0 0 28 29" fill="none" xmlns="http://www.w3.org/2000/svg">
<path d="M3.5 11.7275H8.75V23.1025H3.5C3.26794 23.1025 3.04538 23.0104 2.88128 22.8463C2.71719 22.6822 2.625 22.4596 2.625 22.2275V12.6025C2.625 12.3705 2.71719 12.1479 2.88128 11.9838C3.04538 11.8197 3.26794 11.7275 3.5 11.7275V11.7275Z" stroke="#77798C" stroke-width="2" stroke-linecap="round" stroke-linejoin="round"/>
<path d="M8.75 11.7275L13.125 2.97754C14.0533 2.97754 14.9435 3.34629 15.5999 4.00267C16.2562 4.65904 16.625 5.54928 16.625 6.47754V9.10254H23.3953C23.6434 9.10193 23.8888 9.15442 24.115 9.2565C24.3412 9.35858 24.5429 9.50787 24.7066 9.69436C24.8703 9.88085 24.9922 10.1002 25.0641 10.3377C25.136 10.5752 25.1562 10.8253 25.1234 11.0713L23.8109 21.5713C23.7578 21.9928 23.5532 22.3806 23.2352 22.6624C22.9173 22.9441 22.5076 23.1006 22.0828 23.1025H8.75" stroke="#77798C" stroke-width="2" stroke-linecap="round" stroke-linejoin="round"/>
</svg>
