<svg width="28" height="30" viewBox="0 0 28 30" fill="none" xmlns="http://www.w3.org/2000/svg">
<path d="M4.09051 5.89228L10.4999 25.0708C10.7733 25.8977 11.9108 25.8751 12.1624 25.0368L14.7436 16.3595C14.7826 16.2176 14.8565 16.0887 14.9582 15.9854C15.0598 15.8821 15.1856 15.808 15.3233 15.7704L23.6905 13.097C24.4999 12.8364 24.5218 11.6583 23.7233 11.3751L5.20614 4.73681C5.05056 4.68018 4.88269 4.67024 4.72189 4.70813C4.56109 4.74602 4.41391 4.83021 4.2973 4.95098C4.18069 5.07175 4.09941 5.2242 4.06282 5.39074C4.02623 5.55728 4.03584 5.73114 4.09051 5.89228V5.89228Z" stroke="white" stroke-width="2" stroke-linecap="round" stroke-linejoin="round"/>
</svg>
