<svg width="13" height="15" viewBox="0 0 13 15" fill="none" xmlns="http://www.w3.org/2000/svg">
<g clip-path="url(#clip0_130_226)">
<path d="M6.28664 3.52614L7.07611 2.65771H1.43418C1.35371 2.65771 1.23682 2.82687 1.23682 3.09193C1.23682 3.35698 1.35371 3.52614 1.43418 3.52614H6.28664Z" fill="white"/>
<path d="M7.20995 5.20384C7.05006 5.34063 6.85176 5.4117 6.6493 5.40476C6.44685 5.39782 6.25295 5.31332 6.10112 5.16584C5.94928 5.01836 5.84905 4.81717 5.81773 4.59704C5.78641 4.37691 5.82598 4.15166 5.92959 3.96021H1.77906L0.858829 7.38697C0.847728 7.43733 0.842113 7.48897 0.842102 7.54079V13.5128H7.35526V7.54079C7.35527 7.45205 7.36515 7.36364 7.38469 7.27755C7.38538 7.27459 7.38612 7.2716 7.38691 7.26865L8.15954 4.3914L7.20995 5.20384ZM4 8.30231H3.99963C3.99976 8.33599 3.99275 8.36924 3.97915 8.39941L3.60862 9.21461L3.77191 11.7296C3.77771 11.8188 3.76673 11.9084 3.73968 11.9927C3.71262 12.0771 3.67006 12.1544 3.61465 12.2198C3.55924 12.2853 3.49217 12.3375 3.41762 12.3732C3.34306 12.4089 3.26262 12.4273 3.18131 12.4273H2.845C2.76369 12.4273 2.68325 12.4089 2.60869 12.3732C2.53414 12.3375 2.46707 12.2853 2.41166 12.2198C2.35625 12.1544 2.31369 12.0771 2.28663 11.9927C2.25958 11.9084 2.2486 11.8188 2.2544 11.7296L2.41769 9.21461L2.04716 8.39941C2.03356 8.36924 2.02655 8.33599 2.02668 8.30231H2.02631V7.43389C2.02631 7.37631 2.04711 7.32109 2.08412 7.28037C2.12113 7.23966 2.17134 7.21678 2.22368 7.21678C2.27603 7.21678 2.32623 7.23966 2.36324 7.28037C2.40026 7.32109 2.42105 7.37631 2.42105 7.43389V8.08521H2.81579V7.43389C2.81579 7.37631 2.83658 7.32109 2.87359 7.28037C2.91061 7.23966 2.96081 7.21678 3.01315 7.21678C3.0655 7.21678 3.1157 7.23966 3.15272 7.28037C3.18973 7.32109 3.21052 7.37631 3.21052 7.43389V8.08521H3.60526V7.43389C3.60526 7.37631 3.62605 7.32109 3.66307 7.28037C3.70008 7.23966 3.75028 7.21678 3.80263 7.21678C3.85497 7.21678 3.90518 7.23966 3.94219 7.28037C3.9792 7.32109 4 7.37631 4 7.43389V8.30231ZM5.77915 12.2129C5.72359 12.2804 5.65582 12.3343 5.58019 12.3712C5.50456 12.4081 5.42275 12.4272 5.34 12.4273H5.02829C4.94556 12.4273 4.86376 12.4082 4.78815 12.3713C4.71253 12.3344 4.64479 12.2805 4.58928 12.213C4.53378 12.1456 4.49174 12.066 4.46588 11.9796C4.44002 11.8932 4.43091 11.8017 4.43914 11.7112L4.5921 10.0283V9.95611L4.30646 9.79901C4.27143 9.77974 4.2424 9.74944 4.22307 9.71197C4.20373 9.67449 4.19498 9.63154 4.19791 9.58858C4.20452 9.49186 4.37352 7.21678 5.57894 7.21678C5.63129 7.21678 5.68149 7.23966 5.7185 7.28037C5.75552 7.32109 5.77631 7.37631 5.77631 7.43389V10.0283L5.92927 11.7111C5.93745 11.8016 5.92832 11.893 5.90246 11.9795C5.87661 12.0659 5.8346 12.1454 5.77915 12.2129Z" fill="white"/>
<path d="M10.7105 0.920898H11.8947V3.30906H10.7105V0.920898Z" fill="white"/>
<path d="M5.87364 1.44519L4.57666 2.2234H7.55263C7.59167 2.2234 7.62983 2.23613 7.66229 2.25999C7.69475 2.28384 7.72004 2.31775 7.73498 2.35742C7.74992 2.39709 7.75383 2.44075 7.74621 2.48286C7.7386 2.52498 7.7198 2.56366 7.6922 2.59403L6.34101 4.08036C6.2556 4.17423 6.20595 4.30039 6.20217 4.43313C6.1984 4.56587 6.24078 4.6952 6.32068 4.79476C6.40059 4.89433 6.512 4.95662 6.63221 4.96896C6.75243 4.98129 6.87239 4.94274 6.96766 4.86115L8.19941 3.80732C8.24806 3.76583 8.30785 3.74326 8.36942 3.74314H8.8546C9.03269 3.74292 9.20342 3.665 9.32935 3.52648C9.45528 3.38796 9.52611 3.20015 9.52632 3.00425C9.52641 2.91235 9.55965 2.82424 9.61872 2.75926C9.6778 2.69427 9.75789 2.65772 9.84144 2.65761H10.3158V1.35498H6.19528C6.0829 1.35506 5.97233 1.38607 5.87364 1.44519Z" fill="white"/>
<path d="M3.22411 9.38794H2.80224L2.64802 11.7607C2.64609 11.7904 2.64975 11.8202 2.65878 11.8484C2.6678 11.8765 2.68198 11.9022 2.70045 11.9241C2.71892 11.9459 2.74128 11.9633 2.76613 11.9752C2.79098 11.9871 2.81779 11.9932 2.8449 11.9932H3.18121C3.20831 11.9932 3.23512 11.9871 3.25997 11.9752C3.28482 11.9633 3.30718 11.9459 3.32565 11.9241C3.34412 11.9022 3.35831 11.8765 3.36733 11.8484C3.37635 11.8202 3.38001 11.7904 3.37808 11.7607L3.22411 9.38794Z" fill="white"/>
<path d="M4.98684 9.82216H5.38158V7.69067C5.13832 7.79263 4.93903 8.09129 4.78735 8.58224C4.70071 8.87381 4.63986 9.17389 4.60565 9.47832L4.87775 9.62799C4.91053 9.64602 4.9381 9.67373 4.95737 9.70803C4.97664 9.74232 4.98684 9.78184 4.98684 9.82216Z" fill="white"/>
<path d="M2.7404 8.95374H3.28592L3.48329 8.51953H2.54303L2.7404 8.95374Z" fill="white"/>
<path d="M8.02911 13.513H9.0498L8.53946 12.9517L8.02911 13.513Z" fill="white"/>
<path d="M5.40031 10.2563H4.96807L4.83186 11.7544C4.8291 11.7846 4.83213 11.8151 4.84074 11.8439C4.84936 11.8727 4.86337 11.8992 4.88188 11.9217C4.90038 11.9442 4.92297 11.9622 4.94819 11.9745C4.9734 11.9868 5.00068 11.9932 5.02827 11.9932H5.34011C5.36769 11.9932 5.39497 11.9868 5.42019 11.9745C5.4454 11.9622 5.46799 11.9442 5.4865 11.9217C5.505 11.8992 5.51902 11.8727 5.52763 11.8439C5.53625 11.8151 5.53927 11.7846 5.53651 11.7544L5.40031 10.2563Z" fill="white"/>
<path d="M7.76675 7.38698C7.75564 7.43734 7.75002 7.48898 7.75 7.5408V13.2058L8.34211 12.5545V7.86811C8.34211 7.81053 8.3629 7.75531 8.39991 7.7146C8.43693 7.67388 8.48713 7.65101 8.53947 7.65101C8.59182 7.65101 8.64202 7.67388 8.67903 7.7146C8.71605 7.75531 8.73684 7.81053 8.73684 7.86811V12.5545L9.32895 13.2058V7.55895C9.32896 7.49677 9.32086 7.43491 9.30489 7.37526L8.53905 4.51099L7.76675 7.38698Z" fill="white"/>
</g>
<defs>
<clipPath id="clip0_130_226">
<rect width="12.6316" height="13.8947" fill="white" transform="translate(0.0526123 0.269531)"/>
</clipPath>
</defs>
</svg>
