<svg width="15" height="15" viewBox="0 0 15 15" fill="none" xmlns="http://www.w3.org/2000/svg">
<g clip-path="url(#clip0_130_107)">
<path d="M14.7369 7.2169C14.7369 9.05946 13.9744 10.8265 12.6172 12.1294C11.2601 13.4323 9.41936 14.1643 7.50003 14.1643C5.5807 14.1643 3.73998 13.4323 2.38281 12.1294C1.02563 10.8265 0.263184 9.05946 0.263184 7.2169C0.263184 5.37434 1.02563 3.60725 2.38281 2.30437C3.73998 1.00148 5.5807 0.269531 7.50003 0.269531C9.41936 0.269531 11.2601 1.00148 12.6172 2.30437C13.9744 3.60725 14.7369 5.37434 14.7369 7.2169ZM7.50003 3.309C7.50003 3.19385 7.45237 3.0834 7.36755 3.00197C7.28273 2.92054 7.16768 2.87479 7.04772 2.87479C6.92776 2.87479 6.81272 2.92054 6.7279 3.00197C6.64307 3.0834 6.59542 3.19385 6.59542 3.309V8.08532C6.59545 8.16186 6.61654 8.23703 6.65658 8.30321C6.69661 8.3694 6.75415 8.42425 6.82338 8.46222L9.9895 10.1991C10.0934 10.253 10.2151 10.2657 10.3287 10.2346C10.4423 10.2035 10.5387 10.1309 10.5973 10.0325C10.6559 9.93405 10.672 9.81751 10.6423 9.70778C10.6126 9.59805 10.5393 9.50383 10.4382 9.44527L7.50003 7.83348V3.309Z" fill="white"/>
</g>
<defs>
<clipPath id="clip0_130_107">
<rect width="14.4737" height="13.8947" fill="white" transform="translate(0.263184 0.269531)"/>
</clipPath>
</defs>
</svg>
