<svg width="14" height="15" viewBox="0 0 14 15" fill="none" xmlns="http://www.w3.org/2000/svg">
<g clip-path="url(#clip0_130_244)">
<path d="M7.06788 4.0188L6.57606 0.516163C6.55656 0.373742 6.44225 0.269531 6.30847 0.269531C6.30575 0.269531 6.3025 0.269531 6.29925 0.269531C6.16166 0.274172 6.04953 0.388206 6.03871 0.534698L5.80146 3.57591C5.78684 3.76349 5.47537 3.76349 5.46075 3.57591L5.22405 0.534698C5.21212 0.384733 5.09512 0.269531 4.9543 0.269531C4.81346 0.269531 4.69593 0.384733 4.68455 0.534698L4.4473 3.57591C4.43268 3.76349 4.12121 3.76349 4.10658 3.57591L3.86986 0.534698C3.85849 0.388803 3.74636 0.274742 3.60877 0.269531C3.60552 0.269531 3.60281 0.269531 3.60011 0.269531C3.46633 0.269531 3.35202 0.373742 3.33252 0.516163L2.84124 4.0188C2.69661 5.04528 3.2177 6.02716 4.09627 6.43649L3.67811 12.7007C3.65321 13.0776 3.77671 13.4522 4.01774 13.7289C4.25824 14.0056 4.59896 14.1643 4.95321 14.1643H4.95537C5.30909 14.1643 5.65034 14.0056 5.89137 13.7289C6.13241 13.4522 6.25591 13.0776 6.231 12.7007L5.81284 6.43649C6.69143 6.02716 7.2125 5.04528 7.06788 4.0188Z" fill="white"/>
<path d="M11.0688 0.322835C10.9973 0.268423 10.9052 0.255668 10.8223 0.286361C10.799 0.295046 8.47528 1.20746 8.47528 4.03273C8.47528 6.06657 9.09441 7.09362 9.44269 7.51046L9.09603 7.88097C9.05162 7.92844 9.024 7.9904 9.01803 8.05697L8.58956 12.637C8.55272 13.0266 8.67244 13.4169 8.91835 13.7075C9.16428 13.9981 9.51691 14.1643 9.88309 14.1643C10.5997 14.1643 11.1831 13.5408 11.1831 12.7748V0.559046C11.1836 0.464659 11.1408 0.377247 11.0688 0.322835Z" fill="white"/>
</g>
<defs>
<clipPath id="clip0_130_244">
<rect width="13" height="13.8947" fill="white" transform="translate(0.5 0.269531)"/>
</clipPath>
</defs>
</svg>
